<?xml version="1.0" encoding="UTF-8" standalone="no"?>
<!-- Generator: Adobe Illustrator 18.0.0, SVG Export Plug-In . SVG Version: 6.00 Build 0)  -->

<svg
   version="1.1"
   id="Layer_1"
   x="0px"
   y="0px"
   viewBox="0 0 2272 1872"
   enable-background="new 0 0 2272 1872"
   xml:space="preserve"
   sodipodi:docname="anonymous1.svg"
   inkscape:version="1.3 (0e150ed6c4, 2023-07-21)"
   xmlns:inkscape="http://www.inkscape.org/namespaces/inkscape"
   xmlns:sodipodi="http://sodipodi.sourceforge.net/DTD/sodipodi-0.dtd"
   xmlns="http://www.w3.org/2000/svg"
   xmlns:svg="http://www.w3.org/2000/svg"
   xmlns:i="&amp;ns_ai;"><defs
   id="defs98" /><sodipodi:namedview
   id="namedview98"
   pagecolor="#505050"
   bordercolor="#eeeeee"
   borderopacity="1"
   inkscape:showpageshadow="0"
   inkscape:pageopacity="0"
   inkscape:pagecheckerboard="0"
   inkscape:deskcolor="#505050"
   inkscape:zoom="0.40625"
   inkscape:cx="1136"
   inkscape:cy="936.61538"
   inkscape:window-width="2560"
   inkscape:window-height="1417"
   inkscape:window-x="-8"
   inkscape:window-y="580"
   inkscape:window-maximized="1"
   inkscape:current-layer="g98" />&#10;<switch
   id="switch98">&#10;	<foreignObject
   requiredExtensions="http://ns.adobe.com/AdobeIllustrator/10.0/"
   x="0"
   y="0"
   width="1"
   height="1">&#10;		&#10;	</foreignObject>&#10;	<g
   i:extraneous="self"
   id="g98">&#10;		<g
   id="g97">&#10;			<rect
   fill="#044877"
   width="2272"
   height="1872"
   id="rect1"
   style="fill:#122537;fill-opacity:1" />&#10;			<g
   id="g96">&#10;				<g
   id="g94">&#10;					<circle
   fill="#182456"
   cx="1133.2"
   cy="948.4"
   r="712.2"
   id="circle1" />&#10;					<path
   fill="#24346D"
   d="M928.1,532.4h-48.7v-17.9h-3.2v17.9H555c-9.1,12.7-17.9,25.7-26.2,39h347.3v26.8H512.9       c-7.2,12.8-14.1,25.8-20.5,39h383.8V664H480c-5.6,12.8-10.8,25.8-15.6,39h411.8v26.8h-421c-4.1,12.8-7.9,25.8-11.3,39h432.3       v26.8H437.4c-2.8,12.9-5.3,25.9-7.4,39h446.1v26.8H426.2c-1.6,12.9-2.8,25.9-3.7,39h453.6v26.8H421.3       c-0.2,7.1-0.3,14.2-0.3,21.3c0,5.9,0.1,11.8,0.2,17.7h526.5c5.4,0,9.7-4.4,9.7-9.7v0c0-16.1-13.1-29.2-29.2-29.2h-48.7v-26.8       h68.2c5.4,0,9.7-4.4,9.7-9.7v0c0-16.1-13.1-29.2-29.2-29.2h-48.7v-26.8h68.2c5.4,0,9.7-4.4,9.7-9.7v0       c0-16.1-13.1-29.2-29.2-29.2h-48.7v-26.8h68.2c5.4,0,9.7-4.4,9.7-9.7v0c0-16.1-13.1-29.2-29.2-29.2h-48.7v-26.8h68.2       c5.4,0,9.7-4.4,9.7-9.7v0c0-16.1-13.1-29.2-29.2-29.2h-48.7v-26.8h68.2c5.4,0,9.7-4.4,9.7-9.7v0c0-16.1-13.1-29.2-29.2-29.2       h-48.7v-26.8h68.2c5.4,0,9.7-4.4,9.7-9.7v0C957.4,545.5,944.3,532.4,928.1,532.4z"
   id="path1" />&#10;					<path
   fill="#24346D"
   d="M1845.4,948.4c0-7.1-0.1-14.2-0.3-21.3h-454.9v-26.8h453.6c-0.9-13.1-2.1-26.1-3.7-39h-449.9v-26.8       h446.1c-2.1-13.1-4.6-26.1-7.4-39h-438.8v-26.8h432.3c-3.4-13.1-7.2-26.1-11.3-39h-421v-26.8H1802c-4.8-13.2-10.1-26.2-15.6-39       h-396.1v-26.8H1774c-6.4-13.2-13.3-26.2-20.5-39h-363.3v-26.8h347.3c-8.3-13.3-17.1-26.3-26.2-39h-321.1v-17.9h-3.2v17.9h-48.7       c-16.1,0-29.2,13.1-29.2,29.2v0c0,5.4,4.4,9.7,9.7,9.7h68.2v26.8h-48.7c-16.1,0-29.2,13.1-29.2,29.2v0c0,5.4,4.4,9.7,9.7,9.7       h68.2V664h-48.7c-16.1,0-29.2,13.1-29.2,29.2v0c0,5.4,4.4,9.7,9.7,9.7h68.2v26.8h-48.7c-16.1,0-29.2,13.1-29.2,29.2v0       c0,5.4,4.4,9.7,9.7,9.7h68.2v26.8h-48.7c-16.1,0-29.2,13.1-29.2,29.2v0c0,5.4,4.4,9.7,9.7,9.7h68.2v26.8h-48.7       c-16.1,0-29.2,13.1-29.2,29.2v0c0,5.4,4.4,9.7,9.7,9.7h68.2v26.8h-48.7c-16.1,0-29.2,13.1-29.2,29.2v0c0,5.4,4.4,9.7,9.7,9.7       h526.5C1845.4,960.2,1845.4,954.3,1845.4,948.4z"
   id="path2" />&#10;					<polygon
   fill="#000028"
   points="1428.9,929.8 1229.7,852.6 1131.5,903 1033.3,852.6 834.1,929.8 671.4,1413.1 1131.5,1413.1        1591.7,1413.1      "
   id="polygon2" />&#10;					<g
   id="g16">&#10;						<polygon
   fill="#000028"
   points="1174.6,918.3 1037.4,918.3 1120.5,745.1 1229.9,793.6       "
   id="polygon3" />&#10;						<path
   fill="#000028"
   d="M1302.6,522.5l-30-13.3c-71.5-31.7-155.2,0.5-186.9,72l-36.6,82.6c-31.7,71.5,0.5,155.2,72,186.9        l30,13.3c71.5,31.7,155.2-0.5,186.9-72l36.6-82.6C1406.4,637.9,1374.1,554.2,1302.6,522.5z"
   id="path3" />&#10;						<g
   id="g15">&#10;							<path
   fill="#BAB3A2"
   d="M1334.3,596.6L1334.3,596.6c-43.2-28.7-90.9-49.9-141.2-62.6h0c-32.6-8.3-66.3,8.7-79.1,39.9         l-43.5,106.3c-12,29.4-11.3,62.4,1.9,91.3l50.8,110.5l116-36.6c30.3-9.5,55.2-31.2,68.9-59.8l49.6-103.6         C1372.3,651.6,1362.3,615.2,1334.3,596.6z"
   id="path4" />&#10;							<path
   fill="#58595B"
   d="M1204.2,648.3c-0.2-1.2-0.4-2.4-0.6-3.5c-0.2-1.2-0.5-2.3-0.7-3.4l-0.8-3.4c-0.1-0.3-0.2-0.5-0.3-0.8         c-0.1-0.2-0.3-0.4-0.5-0.6c-0.4-0.4-0.7-0.8-1-1.3l-1.8-2.6l-3.7-5.2l-14.8-20.9l-2.8-4l-4.7,2l-0.5,0.2l-0.6,0.3         c-0.4,0.2-0.9,0.3-1.3,0.5c-0.9,0.3-1.8,0.6-2.8,0.8c-0.9,0.3-1.9,0.5-2.8,0.7c-1,0.2-1.9,0.4-2.9,0.5         c-1,0.1-1.9,0.2-2.9,0.3c-0.5,0-1,0.1-1.4,0.1c-0.5,0-1,0-1.4,0c-1,0-1.9,0-2.9-0.1l-1.4-0.1l-1.4-0.2         c-0.5-0.1-0.9-0.2-1.4-0.2l-0.7-0.1l-0.7-0.2c-0.9-0.2-1.8-0.5-2.7-0.7c-0.9-0.3-1.8-0.6-2.6-1l-0.6-0.3         c-0.2-0.1-0.4-0.2-0.6-0.3c-0.4-0.2-0.7-0.6-1.2-0.7c-0.5,0-1-0.1-1.5-0.1c-0.5,0-1.1-0.1-1.6-0.2l-1.6-0.2         c-0.3,0-0.5-0.1-0.8-0.2l-0.8-0.2c-1.1-0.2-2.2-0.5-3.4-0.8c-0.6-0.1-1.1-0.3-1.7-0.5c-0.6-0.2-1.2-0.3-1.8-0.5         c0.2,0.6,0.4,1.2,0.6,1.8c0.2,0.6,0.4,1.2,0.7,1.8l0.8,1.7c0.3,0.6,0.6,1.1,0.9,1.7c0.3,0.6,0.6,1.1,1,1.7l1.1,1.6         c0.4,0.5,0.8,1,1.2,1.6l0.6,0.8c0.2,0.3,0.4,0.5,0.7,0.7c0.5,0.5,1.2,0.6,1.7,0.8c0.6,0.3,1.2,0.5,1.7,0.8         c1.2,0.5,2.4,0.9,3.6,1.4c1.2,0.4,2.4,0.8,3.7,1l0.9,0.2l0.9,0.2c0.6,0.1,1.2,0.2,1.9,0.3l1.9,0.3l1.9,0.2         c1.3,0.1,2.5,0.1,3.7,0.1c0.6,0,1.2,0,1.9,0c0.6,0,1.2,0,1.9-0.1c1.2-0.1,2.5-0.2,3.7-0.4c1.2-0.2,2.4-0.4,3.6-0.6         c1.2-0.2,2.4-0.5,3.6-0.8c0.8-0.2,1.6-0.5,2.4-0.7l12.1,17.2l3.7,5.2l1.8,2.6c0.3,0.4,0.6,0.9,0.9,1.4         c0.1,0.2,0.2,0.5,0.4,0.7c0.2,0.2,0.4,0.4,0.6,0.6l2.9,1.9c1,0.6,2,1.2,3,1.8c1,0.6,2.1,1.2,3.1,1.7c1.1,0.6,2.1,1.1,3.3,1.6         C1204.5,650.7,1204.4,649.5,1204.2,648.3z"
   id="path5" />&#10;							<path
   fill="#3D3C36"
   d="M1184.7,671.5l-22.7-25.9c-0.4-0.4-0.8-0.7-1.4-0.8l-32.2-6.6c-2.3-0.5-4,2.3-2.4,4.1l24.3,28.1         c0.4,0.5,0.9,0.8,1.5,0.8l30.7,4.3C1184.7,676,1186.2,673.3,1184.7,671.5z"
   id="path6" />&#10;							&#10;								<ellipse
   transform="matrix(0.9141 0.4055 -0.4055 0.9141 374.7759 -394.8962)"
   fill="#CD4E51"
   cx="1119.5"
   cy="687.2"
   rx="24.6"
   ry="8"
   id="ellipse6" />&#10;							<path
   fill="#CD4E51"
   d="M1167.4,782.2c0,0-36.7-13.5-49-28.4c0,0,9.5,23.2,44.5,38.7L1167.4,782.2z"
   id="path7" />&#10;							<path
   fill="#58595B"
   d="M1242,665c1-0.7,2-1.3,3-1.9c1-0.6,2-1.2,3-1.8l3-1.7c0.3-0.1,0.5-0.2,0.8-0.3c0.3,0,0.5,0,0.8,0         c0.5,0,1.1-0.1,1.6-0.1l3.2-0.4l6.4-0.8l25.4-3.1l4.8-0.6l1.7,4.8l0.2,0.5l0.2,0.6c0.2,0.4,0.3,0.9,0.5,1.3         c0.4,0.9,0.8,1.8,1.2,2.6c0.4,0.9,0.9,1.7,1.4,2.6c0.5,0.8,1,1.7,1.6,2.5c0.5,0.8,1.1,1.6,1.7,2.3c0.3,0.4,0.6,0.8,0.9,1.1         c0.3,0.4,0.6,0.7,0.9,1.1c0.6,0.7,1.3,1.4,2,2.1l1,1l1.1,0.9c0.4,0.3,0.7,0.6,1.1,0.9l0.6,0.4l0.6,0.4c0.8,0.5,1.6,1,2.4,1.5         c0.8,0.4,1.6,0.9,2.5,1.3l0.6,0.3c0.2,0.1,0.4,0.2,0.6,0.3c0.4,0.1,1,0.1,1.3,0.4c0.4,0.4,0.7,0.7,1.1,1.1         c0.4,0.4,0.8,0.7,1.2,1.1l1.3,1.1c0.2,0.2,0.4,0.3,0.7,0.5l0.7,0.5c0.9,0.7,1.9,1.3,2.9,2c0.5,0.4,1,0.6,1.5,1         c0.5,0.3,1.1,0.6,1.6,1c-0.6,0.3-1.1,0.5-1.7,0.8c-0.6,0.3-1.2,0.5-1.8,0.7l-1.8,0.6c-0.6,0.2-1.2,0.3-1.9,0.5         c-0.6,0.1-1.3,0.3-1.9,0.4l-2,0.3c-0.7,0.1-1.3,0.1-2,0.1l-1,0c-0.3,0-0.7,0-1,0c-0.7-0.1-1.2-0.5-1.8-0.7         c-0.6-0.2-1.2-0.5-1.7-0.8c-1.2-0.5-2.3-1.1-3.4-1.7c-1.1-0.7-2.2-1.3-3.2-2l-0.8-0.5l-0.8-0.6c-0.5-0.4-1-0.8-1.5-1.2         l-1.4-1.2l-1.4-1.3c-0.9-0.9-1.8-1.8-2.6-2.7c-0.4-0.5-0.8-0.9-1.2-1.4c-0.4-0.5-0.8-0.9-1.2-1.4c-0.8-1-1.5-2-2.2-3         c-0.7-1-1.4-2.1-2-3.1c-0.6-1.1-1.2-2.1-1.8-3.2c-0.4-0.7-0.7-1.5-1.1-2.3l-20.8,2.6l-6.4,0.8l-3.2,0.4         c-0.5,0.1-1.1,0.1-1.6,0.3c-0.3,0.1-0.5,0.2-0.8,0.2c-0.3,0-0.5,0-0.8-0.1l-3.3-0.9c-1.1-0.3-2.2-0.6-3.4-1         c-1.1-0.4-2.2-0.7-3.4-1.1c-1.1-0.4-2.3-0.8-3.4-1.3C1240,666.4,1241,665.7,1242,665z"
   id="path8" />&#10;							<path
   fill="#3D3C36"
   d="M1237.9,695.1l34.5-0.5c0.5,0,1.1,0.2,1.5,0.5l26.5,19.5c1.9,1.4,1,4.5-1.4,4.5l-37.1,0.9         c-0.6,0-1.2-0.2-1.7-0.6l-23.8-19.8C1234.6,698.1,1235.6,695.2,1237.9,695.1z"
   id="path9" />&#10;							&#10;								<ellipse
   transform="matrix(-0.9141 -0.4055 0.4055 -0.9141 2125.3184 1958.1018)"
   fill="#CD4E51"
   cx="1270.1"
   cy="753.9"
   rx="24.6"
   ry="8"
   id="ellipse9" />&#10;							<path
   fill="#58595B"
   d="M1264.2,785.5c0-1.1-0.1-2.1-0.4-3.1c-0.3-1-0.6-2-1.1-2.9c-0.4-0.9-0.9-1.8-1.4-2.7         c0.4,0.9,0.8,1.9,1,2.8c0.3,1,0.5,1.9,0.7,2.9c0.1,1,0.2,2,0,2.9c-0.2,0.9-0.5,1.8-1,2.5c-0.5,0.7-1.2,1.3-2,1.7         c-0.8,0.4-1.7,0.7-2.6,0.9c-1.8,0.4-3.8,0.5-5.7,0.4c-3.9-0.2-7.8-0.9-11.6-1.8c-1.9-0.5-3.8-1-5.7-1.6         c-0.9-0.3-1.9-0.6-2.8-0.9c-0.9-0.3-1.9-0.6-2.8-1l0,0l-0.4-0.1l-32.3-7.1l-7.5-31.2c-1-4.1-5.6-6.2-9.3-4.1l-28.1,15.4         l-26.9-19.1l-0.3-0.2l0,0c-0.8-0.4-1.7-0.9-2.6-1.4c-0.9-0.5-1.7-1-2.6-1.5c-1.7-1-3.4-2.1-5-3.2c-3.3-2.2-6.4-4.6-9.1-7.4         c-1.4-1.4-2.6-2.9-3.6-4.5c-0.5-0.8-0.8-1.7-1.1-2.5c-0.2-0.9-0.3-1.8-0.1-2.6c0.2-0.9,0.6-1.7,1.1-2.4         c0.6-0.7,1.3-1.4,2.1-1.9c0.8-0.6,1.7-1.1,2.6-1.5c0.9-0.4,1.9-0.8,2.8-1.1c-1,0.2-2,0.4-3,0.8c-1,0.3-1.9,0.7-2.9,1.2         c-0.9,0.5-1.8,1.1-2.6,1.8c-0.8,0.8-1.4,1.7-1.8,2.8c-0.4,1.1-0.4,2.3-0.3,3.4c0.1,1.1,0.5,2.2,0.9,3.2c0.8,2,2,3.8,3.3,5.5         c2.6,3.4,5.5,6.3,8.6,9.1c1.5,1.4,3.1,2.7,4.8,4c0.8,0.6,1.6,1.3,2.5,1.9c0.8,0.6,1.6,1.2,2.6,1.9l-0.4-0.3l27,25l2.3,2.1         l3.5-1.4l18-6.9c3.3-1.3,7,0.4,8.3,3.7l7,18l1.4,3.5l3.1,0.3l36.7,3.2l-0.4-0.1c1.1,0.2,2.1,0.4,3.1,0.6c1,0.2,2,0.4,3.1,0.5         c2,0.3,4.1,0.6,6.2,0.8c4.1,0.4,8.3,0.7,12.5,0.3c2.1-0.2,4.2-0.5,6.3-1.2c1-0.4,2-0.8,3-1.5c0.9-0.6,1.8-1.5,2.3-2.5         C1263.9,787.7,1264.2,786.6,1264.2,785.5z"
   id="path10" />&#10;							<path
   fill="#CD4E51"
   d="M1167.4,782.2c0,0,34.6,18.2,54,17.3c0,0-23.5,8.5-58.5-7L1167.4,782.2z"
   id="path11" />&#10;							<path
   fill="#58595B"
   d="M1154.5,827.7l15.7-9.9c2.6-1.7,3.3-5.2,1.5-7.7l-10.2-14.3v0l0,0l0,0v0l-17.5,2         c-3.1,0.4-5.2,3.2-4.7,6.3l3.2,18.3l-11.7,10.1c-2,1.7-3.3,4.1-3.8,6.7l-10.2,57.5l0,0l0,0l0,0l0,0l35.8-46.2         c1.6-2.1,2.5-4.6,2.4-7.3L1154.5,827.7z"
   id="path12" />&#10;							<g
   id="g14">&#10;								<path
   fill="#979386"
   d="M1306.3,772.8l-22.2,5.2l-21-8.7l-21.2-8.7l-11.9-20.7l-12.2-21l-0.5,0.3l11.5,21.4l11.5,21.3          l0.2,0.3l0.3,0.1l21.2,9.4l21.2,9.3l0.4,0.2l0.5-0.1l15.2-3.2l-26.8,21.2l-16.5,12.9c-2.7,2.2-5.5,4.3-8.2,6.5l-4.1,3.3          l-3.8,3.1c-1.5,0.7-3.1,1.3-4.6,2l-4.9,2.2c-3.3,1.5-6.6,3-9.8,4.5l-4.9,2.3c-1.6,0.8-3.3,1.5-4.9,2.3l-9.8,4.6          c-3.3,1.5-6.5,3.1-9.8,4.6l-4.9,2.3l-4.9,2.4c-3.2,1.6-6.5,3.2-9.7,4.8c-3.2,1.6-6.4,3.2-9.6,4.9l0.2,0.5          c3.4-1.2,6.8-2.5,10.1-3.8c3.4-1.3,6.7-2.6,10.1-3.9l5-2l5-2c3.3-1.4,6.7-2.7,10-4.1l10-4.1c1.7-0.7,3.3-1.4,5-2.1l5-2.1          c3.3-1.4,6.6-2.8,10-4.2l5-2.1c1.7-0.7,3.3-1.4,5-2.2l0.3-0.1l0.3-0.2l4.1-3.3l4.1-3.3c2.7-2.2,5.4-4.4,8.1-6.7l16.1-13.4          l32.3-26.7l6-5L1306.3,772.8z"
   id="path13" />&#10;								<path
   fill="#979386"
   d="M1090.1,695.3l0.4,0.2l21.2,9.5l21.2,9.4l0.3,0.1l0.3-0.1l23.5-5.8l23.5-5.8l-0.1-0.5l-23.7,5.1          l-23.4,5l-20.6-9.9l-20.5-9.7l-11.1-20l-3.8-6.8l0.3,7.8l1.9,41.9l0.9,21c0.2,3.5,0.3,7,0.5,10.5l0.3,5.2l0.3,5.2l0,0.4          l0.1,0.3c0.6,1.7,1.1,3.4,1.7,5.1l1.8,5.1c1.2,3.4,2.4,6.8,3.6,10.2l1.8,5.1c0.6,1.7,1.2,3.4,1.8,5.1l3.7,10.2          c1.2,3.4,2.5,6.8,3.7,10.2l1.9,5.1l1.9,5.1c1.3,3.4,2.6,6.7,3.9,10.1c1.3,3.4,2.6,6.7,4,10.1l0.5-0.2          c-0.9-3.5-1.9-7-2.8-10.4c-1-3.5-1.9-6.9-3-10.4l-1.5-5.2l-1.5-5.2c-1-3.5-2-6.9-3.1-10.4l-3.2-10.3          c-0.5-1.7-1.1-3.4-1.6-5.2l-1.6-5.2c-1.1-3.4-2.2-6.9-3.3-10.3l-1.7-5.1c-0.5-1.6-1-3.2-1.6-4.8l-0.3-4.9l-0.3-5.2          c-0.2-3.5-0.5-7-0.7-10.5l-1.5-20.9l-2.3-34.1l7.8,13.4L1090.1,695.3z"
   id="path14" />&#10;							</g>&#10;						</g>&#10;					</g>&#10;					<line
   fill="#264489"
   x1="1398.3"
   y1="915.5"
   x2="1390.9"
   y2="982.7"
   id="line16" />&#10;					<path
   fill="#004460"
   d="M815.7,1419.9l4.7,2.1c9,4,19.5-0.1,23.5-9.1l11.9-26.9c4-9-0.1-19.5-9.1-23.5l-4.7-2.1       c-9-4-19.5,0.1-23.5,9.1l-11.9,26.9C802.6,1405.4,806.7,1416,815.7,1419.9z"
   id="path16" />&#10;					<path
   fill="#004460"
   d="M1464.2,1419.9l-4.7,2.1c-9,4-19.5-0.1-23.5-9.1l-11.9-26.9c-4-9,0.1-19.5,9.1-23.5l4.7-2.1       c9-4,19.5,0.1,23.5,9.1l11.9,26.9C1477.3,1405.4,1473.2,1416,1464.2,1419.9z"
   id="path17" />&#10;					<path
   fill="#2BBCE9"
   d="M1836.9,1453.4H429.5c-14.2,0-25.7-11.5-25.7-25.7l0,0c0-14.2,11.5-25.7,25.7-25.7h1407.4       c14.2,0,25.7,11.5,25.7,25.7l0,0C1862.6,1441.9,1851.1,1453.4,1836.9,1453.4z"
   id="path18" />&#10;					<path
   fill="#005A7D"
   d="M1536.9,1424.1L1536.9,1424.1c-7.5-3-11.2-11.6-8.2-19.1l18.5-46.1c3-7.5,11.6-11.2,19.1-8.2h0       c7.5,3,11.2,11.6,8.2,19.1l-18.5,46.1C1553,1423.5,1544.5,1427.1,1536.9,1424.1z"
   id="path19" />&#10;					<path
   fill="#005A7D"
   d="M1466.8,1420.9L1466.8,1420.9c-8.3-3.3-12.4-12.8-9-21.1l20.4-51c3.3-8.3,12.8-12.4,21.1-9h0       c8.3,3.3,12.4,12.8,9,21.1l-20.4,51C1484.6,1420.2,1475.1,1424.3,1466.8,1420.9z"
   id="path20" />&#10;					<path
   fill="#005A7D"
   d="M1567,1426.9l-1.8-0.7c-5.8-2.3-8.6-8.9-6.3-14.7l16.4-40.8c2.3-5.8,8.9-8.6,14.7-6.3l1.8,0.7       c5.8,2.3,8.6,8.9,6.3,14.7l-16.4,40.8C1579.4,1426.4,1572.8,1429.2,1567,1426.9z"
   id="path21" />&#10;					<path
   fill="#005A7D"
   d="M1503.3,1421.1L1503.3,1421.1c-8.4-3.4-12.4-12.9-9.1-21.2l20.5-51.3c3.4-8.4,12.9-12.4,21.2-9.1l0,0       c8.4,3.4,12.4,12.9,9.1,21.2l-20.5,51.3C1521.2,1420.4,1511.7,1424.5,1503.3,1421.1z"
   id="path22" />&#10;					<path
   fill="#005A7D"
   d="M813.1,1420.9L813.1,1420.9c8.3-3.3,12.4-12.8,9-21.1l-20.4-51c-3.3-8.3-12.8-12.4-21.1-9h0       c-8.3,3.3-12.4,12.8-9,21.1l20.4,51C795.3,1420.2,804.8,1424.3,813.1,1420.9z"
   id="path23" />&#10;					<path
   fill="#005A7D"
   d="M712.8,1426.9l1.8-0.7c5.8-2.3,8.6-8.9,6.3-14.7l-16.4-40.8c-2.3-5.8-8.9-8.6-14.7-6.3l-1.8,0.7       c-5.8,2.3-8.6,8.9-6.3,14.7l16.4,40.8C700.5,1426.4,707.1,1429.2,712.8,1426.9z"
   id="path24" />&#10;					<path
   fill="#005A7D"
   d="M742.9,1424.1L742.9,1424.1c7.5-3,11.2-11.6,8.2-19.1l-18.5-46.1c-3-7.5-11.6-11.2-19.1-8.2l0,0       c-7.5,3-11.2,11.6-8.2,19.1l18.5,46.1C726.8,1423.5,735.4,1427.1,742.9,1424.1z"
   id="path25" />&#10;					<path
   fill="#005A7D"
   d="M776.6,1421.1L776.6,1421.1c8.4-3.4,12.4-12.9,9.1-21.2l-20.5-51.3c-3.4-8.4-12.9-12.4-21.2-9.1h0       c-8.4,3.4-12.4,12.9-9.1,21.2l20.5,51.3C758.7,1420.4,768.2,1424.5,776.6,1421.1z"
   id="path26" />&#10;					<rect
   x="485.7"
   y="1453.4"
   fill="#24346D"
   width="1295"
   height="229.3"
   id="rect26" />&#10;					<path
   fill="#182456"
   d="M394.3,1163.5c0,0-1.5-4.3-4.2-12.4c-2.5-8.2-6.5-20.1-10.5-35.6c-4.1-15.5-8.6-34.4-12.5-56.4       c-1.9-11-3.8-22.7-5.4-35.2c-0.9-6.2-1.5-12.6-2.2-19.2c-0.6-6.6-1.3-13.3-1.7-20.1c-0.6-6.9-0.9-13.9-1.2-21.1       c-0.1-3.6-0.3-7.2-0.4-10.9c0-0.9-0.1-1.8-0.1-2.7l0-1.4l0-1.5c0-1.8,0-3.7,0-5.5c0-7.4,0-14.8-0.1-22.5c0-1.9,0.1-3.8,0.1-5.8       c0.1-1.9,0.2-3.9,0.2-5.9c0.2-3.9,0.3-7.9,0.5-11.8c0.1-2,0.2-4,0.2-6c0.1-2,0.1-4,0.3-6c0.3-4,0.7-8,1-12.1       c0.3-4.1,0.7-8.1,1-12.2c0.2-2,0.3-4.1,0.6-6.2c0.3-2.1,0.5-4.1,0.8-6.2c1-8.3,2-16.6,3.2-25c1.4-8.4,2.8-16.8,4.2-25.4       l0.5-3.2l0.7-3.2c0.4-2.1,0.9-4.3,1.3-6.4c0.9-4.3,1.8-8.6,2.7-12.9c0.5-2.2,0.9-4.3,1.4-6.5c0.5-2.2,1.1-4.3,1.6-6.4       c1.1-4.3,2.2-8.6,3.3-12.9c0.5-2.2,1.1-4.3,1.6-6.5c0.6-2.2,1.1-4.3,1.7-6.5c1.3-4.3,2.5-8.6,3.8-12.9c1.3-4.3,2.6-8.6,3.9-13       c1.4-4.3,2.9-8.6,4.4-12.9c3-8.6,5.8-17.3,9.2-25.8c1.7-4.3,3.3-8.6,5-12.8l2.5-6.4l2.8-6.3c1.8-4.2,3.7-8.4,5.5-12.7       c1.9-4.2,3.6-8.5,5.7-12.6c2-4.2,4-8.3,6-12.5l3-6.2c1-2.1,2-4.2,3.1-6.2c16.9-32.9,36.3-64.5,57.5-94       c10.6-14.7,21.6-29.1,33.1-42.7c1.4-1.7,2.8-3.4,4.2-5.1c1.4-1.7,2.8-3.4,4.3-5.1c2.9-3.3,5.9-6.6,8.8-9.9       c2.9-3.3,5.8-6.5,8.8-9.8c3-3.2,6-6.3,9-9.4c6-6.2,11.9-12.5,18.1-18.3c3.1-2.9,6.1-5.9,9.2-8.8c3.1-2.9,6-5.8,9.2-8.5       c6.2-5.5,12.4-10.9,18.5-16.3c6.3-5.2,12.5-10.2,18.6-15.2c1.5-1.2,3.1-2.5,4.6-3.7c1.6-1.2,3.1-2.4,4.7-3.5       c3.1-2.3,6.2-4.7,9.3-7c3.1-2.3,6.1-4.6,9.1-6.9c3.1-2.2,6.2-4.3,9.2-6.4c3.1-2.1,6.1-4.2,9.1-6.3c1.5-1,3-2.1,4.5-3.1       c0.7-0.5,1.5-1,2.2-1.5c0.8-0.5,1.5-1,2.3-1.4c6.1-3.8,12-7.6,17.8-11.3c1.5-0.9,2.9-1.8,4.4-2.7c1.5-0.9,2.9-1.7,4.4-2.6       c2.9-1.7,5.8-3.3,8.7-5c2.9-1.6,5.7-3.3,8.5-4.9c1.4-0.8,2.8-1.6,4.2-2.4c1.4-0.7,2.8-1.5,4.2-2.2c5.6-2.9,11-5.7,16.2-8.5       c1.3-0.7,2.6-1.4,3.9-2c0.6-0.3,1.3-0.7,1.9-1c0.7-0.3,1.3-0.6,2-0.9c2.6-1.2,5.2-2.4,7.7-3.6c5.1-2.4,9.9-4.7,14.7-6.9       c2.3-1.1,4.7-2.1,7-3.1c2.3-1,4.6-1.9,6.8-2.8c4.5-1.9,8.7-3.6,12.8-5.3c1-0.4,2-0.8,3-1.3c1-0.4,2-0.8,3-1.1       c2-0.7,3.9-1.5,5.8-2.2c7.5-2.8,14.2-5.3,20-7.4c5.9-1.9,10.9-3.5,15-4.8c8.1-2.6,12.5-4,12.5-4s-4.2,1.8-12,5.2       c-3.9,1.7-8.7,3.8-14.4,6.2c-5.6,2.6-12,5.7-19.2,9c-1.8,0.8-3.6,1.7-5.5,2.6c-0.9,0.4-1.9,0.9-2.9,1.4c-1,0.5-1.9,1-2.9,1.5       c-3.9,2-8,4.1-12.2,6.3c-2.1,1.1-4.3,2.2-6.5,3.4c-2.2,1.1-4.5,2.3-6.7,3.6c-4.5,2.5-9.2,5.1-14,7.8       c-9.7,5.2-19.6,11.5-30.2,17.9c-1.3,0.8-2.6,1.6-4,2.4c-1.3,0.9-2.6,1.7-3.9,2.6c-2.6,1.7-5.3,3.5-8,5.3       c-2.7,1.8-5.5,3.6-8.2,5.4c-1.4,0.9-2.8,1.8-4.2,2.7c-1.4,1-2.7,1.9-4.1,2.9c-5.5,3.9-11.2,7.9-16.9,12c-0.7,0.5-1.4,1-2.2,1.5       l-2.1,1.6c-1.4,1.1-2.8,2.2-4.3,3.2c-2.8,2.2-5.7,4.4-8.6,6.6c-2.9,2.2-5.8,4.4-8.8,6.7c-2.9,2.3-5.8,4.7-8.7,7.1       c-2.9,2.4-5.8,4.8-8.8,7.2c-1.5,1.2-3,2.4-4.4,3.6c-1.4,1.3-2.9,2.5-4.3,3.8c-5.8,5.1-11.7,10.3-17.6,15.5       c-5.8,5.4-11.6,11-17.5,16.5c-3,2.7-5.8,5.7-8.7,8.6c-2.9,2.9-5.8,5.8-8.7,8.8c-5.9,5.8-11.4,12.1-17.1,18.3       c-2.8,3.1-5.7,6.2-8.5,9.4c-2.8,3.2-5.5,6.5-8.3,9.7c-2.8,3.2-5.6,6.5-8.4,9.8c-1.4,1.6-2.7,3.3-4.1,5c-1.3,1.7-2.7,3.4-4,5.1       c-2.7,3.4-5.4,6.8-8.1,10.2l-2,2.6c-0.7,0.8-1.4,1.7-2,2.6c-1.3,1.8-2.6,3.5-3.9,5.3c-2.6,3.5-5.2,7-7.8,10.6       c-1.3,1.8-2.6,3.5-3.9,5.3c-1.3,1.8-2.5,3.6-3.8,5.4c-20.2,29-39,59.6-55.2,91.6c-16.4,31.9-30.5,64.9-42.3,98.2       c-1.5,4.2-3,8.3-4.4,12.5c-1.3,4.2-2.6,8.4-3.9,12.6c-1.3,4.2-2.6,8.3-4,12.5c-0.7,2.1-1.2,4.2-1.8,6.3       c-0.6,2.1-1.1,4.2-1.7,6.3c-4.8,16.6-8.6,33.3-12.3,49.8c-1.6,8.3-3.2,16.5-4.8,24.6c-0.4,2-0.7,4.1-1,6.1       c-0.3,2-0.6,4.1-0.9,6.1c-0.6,4-1.3,8.1-1.9,12.1c-0.3,2-0.6,4-0.9,6c-0.3,2-0.5,4-0.8,6c-0.5,4-0.9,7.9-1.4,11.9       c-0.5,3.9-0.9,7.9-1.4,11.7c-0.3,1.9-0.4,3.9-0.5,5.8c-0.2,1.9-0.3,3.9-0.5,5.8c-0.3,3.8-0.6,7.6-0.9,11.4       c-0.2,1.9-0.3,3.8-0.5,5.7c-0.2,1.9-0.3,3.7-0.4,5.7c-0.3,7.6-0.6,15.1-0.9,22.4c-0.1,1.8-0.2,3.7-0.2,5.5l-0.1,1.2l0,1.4       c0,0.9,0,1.8,0,2.7c-0.1,3.6-0.1,7.1-0.2,10.7c0,7,0,13.9,0.2,20.7c0.1,6.8,0.4,13.4,0.6,19.9c0.4,6.5,0.6,12.8,1.1,19       c0.7,12.3,1.9,24,3,35c2.4,21.9,5.3,41,8.1,56.7c0.7,3.9,1.4,7.6,2,11.1c0.7,3.5,1.3,6.7,1.9,9.8c1.2,6.1,2.3,11.2,3.2,15.4       C393.3,1159,394.3,1163.5,394.3,1163.5z"
   id="path27" />&#10;					<path
   fill="#182456"
   d="M1861,698.4c0,0,1,2.5,2.8,7.2c0.9,2.4,2.1,5.2,3.3,8.7c1.3,3.4,2.7,7.4,4.3,11.9       c1.6,4.5,3.2,9.4,5,14.8c0.9,2.7,1.7,5.5,2.6,8.5c0.9,2.9,1.8,6,2.7,9.2c3.6,12.7,7.5,27,10.9,42.9c0.9,4,1.7,8,2.6,12.2       c0.4,2.1,0.9,4.2,1.3,6.3c0.4,2.1,0.8,4.3,1.2,6.4c0.8,4.3,1.6,8.7,2.3,13.2c0.7,4.5,1.5,9,2.1,13.6c2.7,18.4,4.7,38,5.9,58.3       c0.6,10.2,1,20.5,1.2,31c0,1.3,0.1,2.6,0.1,3.9l0,2l0,2.1c0,2.6,0,5.2-0.1,7.9c-0.1,5.2-0.1,10.5-0.2,15.8c0,2.6-0.2,5.3-0.3,8       c-0.1,2.7-0.3,5.4-0.4,8.1c-0.3,5.4-0.5,10.8-0.9,16.2c-0.5,5.4-1,10.8-1.4,16.2c-0.5,5.4-0.9,10.8-1.6,16.2       c-1.4,10.8-2.6,21.6-4.5,32.2c-0.9,5.3-1.8,10.7-2.7,16c-1,5.3-2.1,10.5-3.2,15.8c-0.5,2.6-1.1,5.2-1.6,7.8l-0.8,3.9       c-0.3,1.3-0.6,2.6-0.9,3.9c-1.3,5.1-2.5,10.3-3.8,15.3c-0.6,2.5-1.3,5.1-1.9,7.6c-0.7,2.5-1.4,5-2.1,7.5       c-1.4,5-2.9,9.9-4.3,14.8c-1.3,4.9-3,9.7-4.6,14.4c-1.6,4.7-3.1,9.4-4.7,14.1l-0.6,1.7l-0.6,1.7c-0.4,1.1-0.8,2.3-1.3,3.4       c-0.8,2.3-1.7,4.5-2.5,6.8c-1.7,4.5-3.3,8.9-5,13.3c-3.6,8.6-7.1,16.9-10.5,25c-3.7,7.9-7.3,15.6-10.7,23       c-1.7,3.7-3.6,7.2-5.4,10.6c-1.8,3.5-3.5,6.8-5.2,10.1c-0.9,1.6-1.7,3.3-2.5,4.8c-0.9,1.6-1.8,3.1-2.6,4.6c-1.7,3-3.4,6-5,8.9       c-1.6,2.9-3.2,5.6-4.7,8.3c-1.5,2.7-3.1,5.2-4.6,7.6c-3,4.8-5.8,9.3-8.2,13.3c-0.6,1-1.2,2-1.8,2.9c-0.6,0.9-1.2,1.8-1.8,2.7       c-1.2,1.7-2.3,3.4-3.3,4.9c-2.1,3-3.8,5.6-5.2,7.7c-2.9,4.2-4.4,6.4-4.4,6.4s1.3-2.4,3.7-6.8c1.2-2.2,2.7-4.9,4.5-8.2       c0.9-1.6,1.8-3.3,2.8-5.2c0.5-0.9,1-1.9,1.6-2.8c0.5-1,1-2,1.6-3.1c2.1-4.2,4.5-8.8,7.1-13.9c0.6-1.3,1.3-2.5,2-3.9       c0.7-1.3,1.4-2.6,2-4c1.3-2.8,2.7-5.6,4.1-8.6c1.4-3,2.9-6,4.3-9.1c0.7-1.6,1.5-3.2,2.3-4.8c0.7-1.6,1.4-3.3,2.2-5       c2.9-6.7,6.1-13.7,9.3-21.1c3-7.4,6.1-15.2,9.3-23.2c3-8.1,6.1-16.5,9.2-25.1c2.8-8.7,5.9-17.6,8.9-26.8       c1.4-4.6,2.8-9.3,4.2-14c1.4-4.7,2.9-9.4,4.1-14.3c1.3-4.8,2.5-9.7,3.8-14.6c0.6-2.5,1.3-4.9,1.9-7.4c0.6-2.5,1.1-5,1.7-7.5       c1.1-5,2.3-10.1,3.4-15.1c0.3-1.3,0.6-2.5,0.9-3.8l0.7-3.8c0.5-2.6,1-5.1,1.5-7.7c1-5.2,2-10.3,3-15.5       c0.8-5.2,1.7-10.5,2.5-15.7c1.9-10.5,2.9-21.1,4.3-31.6c0.8-5.3,1.2-10.6,1.7-15.9c0.5-5.3,1-10.6,1.5-15.9       c0.2-2.6,0.3-5.3,0.5-7.9c0.2-2.6,0.3-5.3,0.5-7.9c0.2-2.6,0.3-5.2,0.5-7.9c0.1-2.6,0.4-5.2,0.4-7.9c0.1-5.3,0.3-10.6,0.4-15.8       c0.1-2.6,0.1-5.2,0.2-7.9l0.1-1.8l0-1.9c0-1.3,0-2.6,0-3.9c0-5.1,0-10.3-0.1-15.3c-0.1-5.1-0.1-10.1-0.4-15.1       c-0.7-20-2-39.3-3.9-57.6c-1-9.1-2-18-3.1-26.6c-0.3-2.1-0.6-4.3-0.8-6.4c-0.3-2.1-0.6-4.2-0.9-6.3c-0.6-4.1-1.2-8.2-1.9-12.1       c-0.7-4-1.3-7.8-2-11.6c-0.7-3.8-1.4-7.5-2.1-11.1c-1.3-7.2-2.8-14-4.1-20.4c-1.5-6.4-2.8-12.3-4.1-17.9       c-1.4-5.5-2.5-10.6-3.7-15.1c-1.2-4.5-2.3-8.6-3.2-12.1c-0.9-3.5-1.8-6.5-2.5-9C1861.7,701,1861,698.4,1861,698.4z"
   id="path28" />&#10;					<g
   id="g45">&#10;						<path
   fill="#50ABA0"
   d="M545,1315.7c0,0-5.5-66.6-23.1-108.5c-17.6-41.9-41.9-69.3-41.9-69.3s15.2,41.3,22.5,78.4        c7.3,37.1,15.2,102.1,15.2,102.1L545,1315.7z"
   id="path29" />&#10;						<path
   fill="#50ABA0"
   d="M515.9,1280.2c0,0,15.2-65,41.3-79.6c26.1-14.6,68.1,17,83.3,65.6c0,0-24.3-51.1-59.6-49.2        c-35.3,1.8-44.4,74.8-44.4,74.8L515.9,1280.2z"
   id="path30" />&#10;						<path
   fill="#50ABA0"
   d="M537.1,1255.2c0,0-44.4-41.9-85.7-43.8c-41.3-1.8-56.5,29.8-56.5,29.8s15.8-18.8,55.9-15.2        s52.3,49.8,52.3,49.8L537.1,1255.2z"
   id="path31" />&#10;						<path
   fill="#54BF9D"
   d="M531.1,1326.4c-1.8-1.8,1.8-72.3-28.6-113.7s-79.6-74.8-79.6-74.8s36.5,37.1,58.3,85.1        c21.9,48,27.4,108.2,28.6,119.7c1.2,11.5,43.8,9.1,43.8,9.1s0-62.6,17.6-107c17.6-44.4,52.9-83.9,52.9-83.9        s-36.5,10.3-62.6,63.8C535.3,1278.3,531.1,1326.4,531.1,1326.4z"
   id="path32" />&#10;						<path
   fill="#385088"
   d="M508.6,1315.7c0,0-36.5-62.9-57.4-75.7c-21-12.8-48.8,20.1-54.7,70.2c-5.9,50.1,1.4,73.8,1.4,73.8        s9.1-103.5,42.4-131.7c0,0,29.2,30.5,41.9,64.3C494.9,1350.4,508.6,1315.7,508.6,1315.7z"
   id="path33" />&#10;						<path
   fill="#242F65"
   d="M488.4,1328.2l18.1-15.9c-5.3-8.8-19.9-32.8-34.5-51.1c-5.5-5.1-10.6-8.8-14.5-9.6        c-13.9-3.1-19.6,0.7-22.7,6.4c1.7-2,3.5-3.9,5.4-5.5c0,0,29.2,30.5,41.9,64.3C484.2,1322.2,486.4,1325.8,488.4,1328.2z"
   id="path34" />&#10;						<path
   fill="#486B9A"
   d="M583.8,1263.3c0,0-11.4,36.5-19.6,64.3s-15.5,37.4-15.5,37.4s1.8-103.5,10.9-111.7        C568.8,1245.1,583.8,1263.3,583.8,1263.3z"
   id="path35" />&#10;						<path
   fill="#59A3B5"
   d="M525.9,1297.5c0,0-25.1-69.7-58.3-70.7c-33.3-0.9-53.3,108-41.5,147.2c0,0,16.9-79.3,43.3-121.3        c0,0,36.9,45.1,40.6,52.4C513.6,1312.5,525.9,1297.5,525.9,1297.5z"
   id="path36" />&#10;						<path
   fill="#1C1C50"
   d="M494.9,1243.2c0,0,6.8-12.3,14.6,1.4c7.7,13.7,25.1,114.4,25.1,114.4l-25.5,0.9        c0,0-16.9-78.9-17.3-87.1C491.3,1264.7,494.9,1243.2,494.9,1243.2z"
   id="path37" />&#10;						<path
   fill="#59A3B5"
   d="M560.1,1254.6c0,0,0.9-12.8,23.2-7.3s46.5,86.6,29.2,132.2c0,0,0-63.4-20.5-86.2        C571.5,1270.6,560.1,1254.6,560.1,1254.6z"
   id="path38" />&#10;						<path
   fill="#1C1C50"
   d="M536.4,1300.7c0,0,26.9-60.6,61.1-57.9s56.1,89.8,40.6,139.9c0,0-4.6-68.8-40.1-110.8        c0,0-20.5,4.1-32.8,36.9C552.8,1341.7,536.4,1300.7,536.4,1300.7z"
   id="path39" />&#10;						<path
   fill="#385088"
   d="M597.5,1242.8c-6.9-0.6-13.6,1.5-19.7,5.2c4.4,3.9,12.4,11.9,19.6,24.2c0.4-0.1,0.6-0.1,0.6-0.1        c35.6,41.9,40.1,110.8,40.1,110.8C653.5,1332.6,631.7,1245.5,597.5,1242.8z"
   id="path40" />&#10;						<path
   fill="#242F65"
   d="M558.3,1268.3c0,0-3.6-21.9-14.6-23.7c-10.9-1.8-7.7-2.3-11.9,12.3c-4.1,14.6-6.8,57.4-6.8,57.4        l31,2.3L558.3,1268.3z"
   id="path41" />&#10;						<g
   id="g43">&#10;							<polygon
   fill="#223E7F"
   points="558.1,1407.5 475.2,1407.5 456.9,1300.8 576.4,1300.8        "
   id="polygon41" />&#10;							<polygon
   fill="#2F55A6"
   points="574.5,1309.6 458.8,1309.6 451.5,1303.6 581.7,1303.6        "
   id="polygon42" />&#10;							<polygon
   fill="#182E68"
   points="583,1306.5 450.2,1306.5 441.9,1298.8 591.4,1298.8        "
   id="polygon43" />&#10;						</g>&#10;						<path
   fill="#385088"
   d="M534.1,1253.3c0,0,1.4,27.4,10.9,62.5c9.6,35.1,26.9,67.9,26.9,67.9s-6.8-89.8-11.4-115.8        c-4.6-26-2.7-29.6-16.4-28.3S534.1,1253.3,534.1,1253.3z"
   id="path43" />&#10;						<path
   fill="#385088"
   d="M504.9,1239.1c0,0-5.9-5.9-19.6-2.3s-13.2,38.7-10.5,80.7c2.7,41.9,30.5,63.8,30.5,63.8        s-15.5-38.7-12.8-75.2C495.4,1269.7,509,1246.4,504.9,1239.1z"
   id="path44" />&#10;						<path
   fill="#59A3B5"
   d="M535,1246.9c0,0-9.1-13.7-21-1.8c-11.9,11.9-12.8,48.8-8.2,83.9s17.8,58.8,17.8,58.8s-5-40.1,3.2-72        C535,1283.8,542.3,1250.5,535,1246.9z"
   id="path45" />&#10;					</g>&#10;					&#10;						<radialGradient
   id="SVGID_1_"
   cx="1150.459"
   cy="1204.8756"
   r="653.8649"
   gradientTransform="matrix(1 0 0 0.978 0 -23.8813)"
   gradientUnits="userSpaceOnUse">&#10;						<stop
   offset="0"
   style="stop-color:#919191"
   id="stop45" />&#10;						<stop
   offset="0.2988"
   style="stop-color:#949494;stop-opacity:0.7012"
   id="stop46" />&#10;						<stop
   offset="0.4773"
   style="stop-color:#9C9C9C;stop-opacity:0.5227"
   id="stop47" />&#10;						<stop
   offset="0.6241"
   style="stop-color:#AAAAAA;stop-opacity:0.3759"
   id="stop48" />&#10;						<stop
   offset="0.7538"
   style="stop-color:#BFBFBF;stop-opacity:0.2462"
   id="stop49" />&#10;						<stop
   offset="0.8722"
   style="stop-color:#D9D9D9;stop-opacity:0.1278"
   id="stop50" />&#10;						<stop
   offset="0.9808"
   style="stop-color:#F9F9F9;stop-opacity:1.915932e-002"
   id="stop51" />&#10;						<stop
   offset="1"
   style="stop-color:#FFFFFF;stop-opacity:0"
   id="stop52" />&#10;					</radialGradient>&#10;					<polygon
   fill="url(#SVGID_1_)"
   points="1150.5,453 369.6,453 369.6,1582.4 810.8,1280.2 1150.5,1275.4 1490.1,1280.2        1931.3,1582.4 1931.3,453      "
   id="polygon52" />&#10;					<g
   id="g93">&#10;						<path
   fill="#2F55A6"
   d="M1473.7,1321.6H836.9c-25.2,0-45.6-20.4-45.6-45.6V908.4c0-25.2,20.4-45.6,45.6-45.6h636.7        c25.2,0,45.6,20.4,45.6,45.6v367.6C1519.3,1301.1,1498.9,1321.6,1473.7,1321.6z"
   id="path52" />&#10;						<path
   fill="#1B326E"
   d="M1207.5,1404.8H1103v-155.1c0-28.9,23.4-52.2,52.2-52.2h0c28.9,0,52.2,23.4,52.2,52.2V1404.8z"
   id="path53" />&#10;						<path
   fill="#2F55A6"
   d="M1347.9,1413.1H962.7v0c0-17.4,14.1-31.5,31.5-31.5h322.1C1333.7,1381.6,1347.9,1395.7,1347.9,1413.1        L1347.9,1413.1z"
   id="path54" />&#10;						<g
   id="g67">&#10;							<g
   id="g66">&#10;								<circle
   fill="#264489"
   cx="865"
   cy="950.8"
   r="10.9"
   id="circle54" />&#10;								<circle
   fill="#264489"
   cx="913.3"
   cy="950.8"
   r="10.9"
   id="circle55" />&#10;								<circle
   fill="#264489"
   cx="961.7"
   cy="950.8"
   r="10.9"
   id="circle56" />&#10;								<circle
   fill="#264489"
   cx="1010.1"
   cy="950.8"
   r="10.9"
   id="circle57" />&#10;								<circle
   fill="#264489"
   cx="1058.5"
   cy="950.8"
   r="10.9"
   id="circle58" />&#10;								<circle
   fill="#264489"
   cx="1106.9"
   cy="950.8"
   r="10.9"
   id="circle59" />&#10;								<circle
   fill="#264489"
   cx="1155.3"
   cy="950.8"
   r="10.9"
   id="circle60" />&#10;								<circle
   fill="#264489"
   cx="1203.7"
   cy="950.8"
   r="10.9"
   id="circle61" />&#10;								<circle
   fill="#264489"
   cx="1252.1"
   cy="950.8"
   r="10.9"
   id="circle62" />&#10;								<circle
   fill="#264489"
   cx="1300.5"
   cy="950.8"
   r="10.9"
   id="circle63" />&#10;								<circle
   fill="#264489"
   cx="1348.9"
   cy="950.8"
   r="10.9"
   id="circle64" />&#10;								<circle
   fill="#264489"
   cx="1397.2"
   cy="950.8"
   r="10.9"
   id="circle65" />&#10;								<circle
   fill="#264489"
   cx="1445.6"
   cy="950.8"
   r="10.9"
   id="circle66" />&#10;							</g>&#10;						</g>&#10;						<g
   id="g80">&#10;							<g
   id="g79">&#10;								<circle
   fill="#264489"
   cx="865"
   cy="1017.7"
   r="10.9"
   id="circle67" />&#10;								<circle
   fill="#264489"
   cx="913.3"
   cy="1017.7"
   r="10.9"
   id="circle68" />&#10;								<circle
   fill="#264489"
   cx="961.7"
   cy="1017.7"
   r="10.9"
   id="circle69" />&#10;								<circle
   fill="#264489"
   cx="1010.1"
   cy="1017.7"
   r="10.9"
   id="circle70" />&#10;								<circle
   fill="#264489"
   cx="1058.5"
   cy="1017.7"
   r="10.9"
   id="circle71" />&#10;								<circle
   fill="#264489"
   cx="1106.9"
   cy="1017.7"
   r="10.9"
   id="circle72" />&#10;								<circle
   fill="#264489"
   cx="1155.3"
   cy="1017.7"
   r="10.9"
   id="circle73" />&#10;								<circle
   fill="#264489"
   cx="1203.7"
   cy="1017.7"
   r="10.9"
   id="circle74" />&#10;								<circle
   fill="#264489"
   cx="1252.1"
   cy="1017.7"
   r="10.9"
   id="circle75" />&#10;								<circle
   fill="#264489"
   cx="1300.5"
   cy="1017.7"
   r="10.9"
   id="circle76" />&#10;								<circle
   fill="#264489"
   cx="1348.9"
   cy="1017.7"
   r="10.9"
   id="circle77" />&#10;								<circle
   fill="#264489"
   cx="1397.2"
   cy="1017.7"
   r="10.9"
   id="circle78" />&#10;								<circle
   fill="#264489"
   cx="1445.6"
   cy="1017.7"
   r="10.9"
   id="circle79" />&#10;							</g>&#10;						</g>&#10;						<g
   id="g92">&#10;							<g
   id="g91">&#10;								<circle
   fill="#264489"
   cx="891.6"
   cy="985.1"
   r="10.9"
   id="circle80" />&#10;								<circle
   fill="#264489"
   cx="940"
   cy="985.1"
   r="10.9"
   id="circle81" />&#10;								<circle
   fill="#264489"
   cx="988.4"
   cy="985.1"
   r="10.9"
   id="circle82" />&#10;								<circle
   fill="#264489"
   cx="1036.8"
   cy="985.1"
   r="10.9"
   id="circle83" />&#10;								<circle
   fill="#264489"
   cx="1085.2"
   cy="985.1"
   r="10.9"
   id="circle84" />&#10;								<circle
   fill="#264489"
   cx="1133.6"
   cy="985.1"
   r="10.9"
   id="circle85" />&#10;								<circle
   fill="#264489"
   cx="1182"
   cy="985.1"
   r="10.9"
   id="circle86" />&#10;								<circle
   fill="#264489"
   cx="1230.3"
   cy="985.1"
   r="10.9"
   id="circle87" />&#10;								<circle
   fill="#264489"
   cx="1278.7"
   cy="985.1"
   r="10.9"
   id="circle88" />&#10;								<circle
   fill="#264489"
   cx="1327.1"
   cy="985.1"
   r="10.9"
   id="circle89" />&#10;								<circle
   fill="#264489"
   cx="1375.5"
   cy="985.1"
   r="10.9"
   id="circle90" />&#10;								<circle
   fill="#264489"
   cx="1423.9"
   cy="985.1"
   r="10.9"
   id="circle91" />&#10;							</g>&#10;						</g>&#10;					</g>&#10;				</g>&#10;				<path
   fill="#24346D"
   d="M1662.5,1697.2h-543.1c-6.6,0-12,5.4-12,12l0,0c0,6.6,5.4,12,12,12h543.1c6.6,0,12-5.4,12-12l0,0      C1674.5,1702.6,1669.1,1697.2,1662.5,1697.2z"
   id="path94" />&#10;				<path
   fill="#24346D"
   d="M1913.4,1745.2h-309.8c-6.6,0-12,5.4-12,12l0,0c0,6.6,5.4,12,12,12h309.8c6.6,0,12-5.4,12-12l0,0      C1925.4,1750.6,1920,1745.2,1913.4,1745.2z"
   id="path95" />&#10;				<path
   fill="#24346D"
   d="M737.4,1697.2H352.7c-6.6,0-12,5.4-12,12l0,0c0,6.6,5.4,12,12,12h384.8c6.6,0,12-5.4,12-12l0,0      C749.4,1702.6,744.1,1697.2,737.4,1697.2z"
   id="path96" />&#10;			</g>&#10;		</g>&#10;	</g>&#10;</switch>&#10;&#10;</svg>
